<svg xmlns="http://www.w3.org/2000/svg" viewBox="0 0 100 100">
  <defs>
    <linearGradient id="fireGrad" x1="0%" y1="100%" x2="50%" y2="0%">
      <stop offset="0%" style="stop-color:#ff4500"/>
      <stop offset="50%" style="stop-color:#ff8c00"/>
      <stop offset="100%" style="stop-color:#ffd700"/>
    </linearGradient>
  </defs>
  <path fill="url(#fireGrad)" d="M50 10 C30 30, 20 50, 25 70 C28 80, 35 90, 50 95 C65 90, 72 80, 75 70 C80 50, 70 30, 50 10 Z M50 25 C40 40, 35 55, 38 65 C40 72, 45 78, 50 80 C55 78, 60 72, 62 65 C65 55, 60 40, 50 25 Z"/>
  <path fill="#fff" opacity="0.3" d="M45 35 C42 45, 40 55, 42 62 C44 68, 47 72, 50 73 C53 72, 56 68, 58 62 C60 55, 58 45, 55 35 C53 40, 47 40, 45 35 Z"/>
</svg>
